<?xml version="1.0" standalone="no"?>
<!DOCTYPE svg PUBLIC "-//W3C//DTD SVG 20010904//EN"
 "http://www.w3.org/TR/2001/REC-SVG-20010904/DTD/svg10.dtd">
<svg version="1.0" xmlns="http://www.w3.org/2000/svg"
 width="576.000000pt" height="576.000000pt" viewBox="0 0 576.000000 576.000000"
 preserveAspectRatio="xMidYMid meet">
<metadata>
Created by potrace 1.14, written by Peter Selinger 2001-2017
</metadata>
<g transform="translate(0.000000,576.000000) scale(0.100000,-0.100000)"
fill="#000000" stroke="none">
<path d="M154 5424 c-57 -20 -120 -86 -140 -146 -46 -138 42 -290 181 -312 27
-5 93 -7 135 -5 8 0 42 0 75 0 33 0 69 0 80 0 246 0 259 -2 279 -44 8 -18 17
-50 20 -72 4 -23 9 -52 12 -65 8 -42 70 -368 78 -412 3 -15 12 -63 20 -105 9
-43 18 -89 20 -103 12 -64 26 -138 31 -165 4 -16 7 -37 9 -45 4 -27 17 -94 26
-140 10 -45 15 -74 26 -140 3 -19 8 -38 10 -42 3 -4 7 -31 10 -60 3 -29 8 -57
11 -61 3 -5 7 -23 10 -40 2 -18 11 -64 19 -104 7 -39 17 -89 20 -110 3 -21 8
-41 10 -45 3 -4 7 -29 10 -55 2 -26 9 -61 14 -78 5 -16 11 -46 14 -65 3 -19
10 -60 16 -90 6 -30 13 -73 17 -95 3 -22 9 -45 14 -51 5 -6 7 -13 4 -16 -3 -3
1 -36 9 -75 8 -38 17 -82 20 -98 24 -128 29 -153 32 -175 3 -14 7 -34 11 -44
3 -11 7 -34 9 -50 5 -46 41 -207 54 -241 6 -16 11 -32 11 -35 0 -3 14 -30 31
-60 103 -183 264 -308 463 -359 43 -11 168 -25 200 -22 59 5 135 5 135 1 0 -3
28 -4 62 -2 35 1 68 3 73 3 6 0 28 0 50 0 22 -1 49 -1 60 -1 23 1 215 2 230 2
43 -1 103 -1 115 -1 8 0 31 0 50 -1 19 0 63 1 98 2 34 2 62 1 62 -2 0 -4 101
-4 120 0 3 0 61 0 130 0 69 -1 132 -1 140 -1 8 0 33 0 55 0 22 0 49 0 60 1
100 4 135 4 135 0 0 -6 109 -4 115 1 2 2 58 2 125 -1 67 -3 123 -3 125 -1 6 5
115 7 115 1 0 -3 28 -4 62 -2 35 1 68 3 73 3 6 0 28 0 50 0 22 -1 49 -1 60 0
11 0 142 0 290 0 149 -1 286 1 305 4 114 15 195 112 195 235 0 77 -19 122 -72
173 -33 33 -153 87 -153 69 0 -4 -46 -6 -102 -4 -57 1 -123 2 -148 2 -57 -2
-49 -2 -150 0 -47 0 -128 1 -180 1 -52 0 -99 0 -105 0 -5 1 -32 0 -60 0 -27
-1 -89 -2 -137 -1 -49 0 -112 0 -140 -1 -29 0 -80 0 -113 0 -33 0 -69 0 -80 0
-33 0 -159 0 -170 0 -5 0 -37 0 -70 0 -33 0 -69 0 -80 0 -33 0 -159 0 -170 0
-5 0 -37 0 -70 0 -33 0 -69 0 -80 0 -33 0 -159 0 -170 0 -5 0 -37 0 -70 0 -85
0 -89 0 -200 0 -55 0 -106 -1 -112 0 -14 0 -116 0 -135 0 -7 0 -51 0 -98 0
-47 1 -117 1 -156 0 -236 -1 -318 63 -348 276 -3 17 -7 42 -10 55 -6 24 -10
48 -22 118 -5 30 -3 32 23 33 15 1 32 0 38 -1 5 -1 66 -1 135 0 69 0 133 1
143 1 72 0 88 0 100 0 6 0 37 0 67 0 58 -1 71 -1 135 0 22 0 47 0 55 0 8 0 60
0 115 0 55 0 106 1 113 0 6 0 38 0 70 0 31 0 66 0 77 -1 11 -1 27 -1 35 -1 8
0 42 0 75 0 33 0 66 0 73 0 6 0 28 0 47 0 19 0 43 0 53 0 9 1 42 0 72 0 30 0
62 0 70 0 58 2 123 0 131 -5 5 -3 9 0 9 6 0 6 4 9 9 6 9 -6 88 -8 179 -4 34 2
62 1 62 -2 0 -4 107 -4 120 1 3 1 9 1 13 0 5 -1 174 -1 375 -1 328 1 431 1
451 -2 3 0 8 0 11 1 3 1 37 3 75 5 197 10 388 114 522 284 18 22 33 44 33 47
0 4 8 19 18 33 21 31 60 124 72 174 10 41 29 110 120 448 40 146 74 272 76
280 1 8 22 83 44 165 22 83 43 157 45 165 2 8 11 42 20 75 9 33 18 68 20 77 2
9 13 51 25 92 60 214 69 260 66 335 -4 98 -33 173 -97 244 -50 56 -109 95
-174 117 -37 12 -140 23 -190 20 -16 -1 -37 -2 -45 -1 -8 0 -40 0 -70 0 -30 0
-62 0 -70 0 -8 1 -31 1 -50 0 -19 -1 -42 -1 -50 0 -8 0 -40 0 -70 0 -30 -1
-62 -1 -70 0 -8 1 -31 1 -50 0 -19 -1 -42 -1 -50 0 -8 1 -37 0 -65 0 -27 -1
-57 -1 -65 -1 -24 1 -875 3 -875 2 0 -1 -26 -2 -58 -3 -31 -1 -57 0 -57 3 0 3
-28 4 -62 2 -35 -1 -67 -3 -73 -3 -5 0 -62 0 -125 0 -63 0 -122 0 -130 0 -8 0
-40 0 -70 0 -30 0 -63 1 -72 0 -10 0 -34 0 -53 0 -19 0 -41 0 -47 0 -7 0 -38
0 -68 0 -58 1 -71 1 -135 0 -22 0 -47 0 -55 0 -8 0 -204 0 -435 0 -231 0 -427
0 -435 0 -8 1 -40 0 -70 0 -30 -1 -62 -1 -70 0 -8 1 -31 1 -50 0 -19 -1 -42
-1 -50 0 -8 0 -40 0 -70 0 -30 -1 -62 -1 -70 0 -8 1 -31 1 -50 0 -19 -1 -42
-1 -50 0 -8 0 -44 1 -80 1 -71 0 -81 4 -100 39 -19 37 -29 49 -102 122 -56 57
-142 112 -193 125 -5 2 -34 10 -64 18 -77 21 -607 21 -667 0z"/>
<path d="M1630 1261 c-71 -21 -155 -68 -204 -117 -37 -38 -106 -135 -111 -158
-1 -6 -5 -18 -8 -26 -18 -44 -24 -95 -22 -171 3 -105 6 -118 49 -204 55 -111
157 -201 271 -240 73 -25 198 -30 265 -10 30 8 63 17 72 19 29 8 121 71 161
112 42 42 104 141 111 177 3 12 9 36 14 52 9 29 9 182 0 215 -44 167 -170 301
-328 350 -64 19 -204 20 -270 1z"/>
<path d="M4558 1275 c-2 -2 -16 -6 -31 -9 -14 -2 -31 -7 -37 -11 -5 -3 -19 -8
-29 -10 -30 -6 -121 -68 -164 -111 -51 -51 -103 -141 -120 -207 -14 -53 -16
-195 -3 -247 12 -53 77 -167 118 -209 54 -55 128 -103 193 -126 73 -25 198
-30 265 -10 30 8 63 17 72 19 29 8 121 71 161 112 42 42 104 141 111 177 3 12
9 36 14 52 9 29 8 184 -1 215 -2 8 -8 28 -12 45 -13 46 -70 138 -112 180 -92
92 -200 138 -335 141 -48 1 -88 0 -90 -1z"/>
</g>
</svg>
